<!--?xml version="1.0" standalone="no"?-->
              <svg id="sw-js-blob-svg" viewBox="0 0 100 100" xmlns="http://www.w3.org/2000/svg" version="1.1">
                    <defs> 
                        <linearGradient id="sw-gradient" x1="0" x2="1" y1="1" y2="0">
                            <stop id="stop1" stop-color="rgba(248, 117, 55, 1)" offset="0%"></stop>
                            <stop id="stop2" stop-color="rgba(251, 168, 31, 1)" offset="100%"></stop>
                        </linearGradient>
                    </defs>
                <path fill="url(#sw-gradient)" d="M21.9,-33.7C29,-29.5,35.8,-24.5,38.4,-17.8C40.9,-11.2,39.3,-2.9,38.1,5.5C36.9,13.9,36.2,22.3,32.2,29.2C28.2,36,20.9,41.3,13,43.1C5.1,44.8,-3.5,43,-11.7,40.4C-19.8,37.7,-27.5,34.1,-32,28.1C-36.5,22.2,-38,13.9,-39.5,5.5C-41,-2.9,-42.5,-11.6,-39.2,-17.5C-35.8,-23.4,-27.5,-26.6,-20.1,-30.6C-12.8,-34.6,-6.4,-39.4,0.5,-40.2C7.4,-41,14.8,-37.8,21.9,-33.7Z" width="100%" height="100%" transform="translate(50 50)" stroke-width="0" style="transition: all 0.3s ease 0s;"></path>
              </svg>